<?xml version="1.0" encoding="UTF-8"?>
<svg version="1.1" xmlns="http://www.w3.org/2000/svg" width="77" height="78">
<path d="M0 0 C1.01707031 0.68835938 1.01707031 0.68835938 2.0546875 1.390625 C5.22889054 3.81270764 6.776487 5.36671317 8.125 9.1875 C8 12 8 12 6.875 13.6875 C6.25625 14.120625 5.6375 14.55375 5 15 C4.236875 15.556875 3.47375 16.11375 2.6875 16.6875 C-0.61236271 18.29906086 -2.36767853 18.59303208 -6 18 C-8.24043468 16.51524637 -10.01875794 14.84615737 -12 13 C-15.21685579 11.39157211 -18.5111009 11.53221465 -22 12 C-26.42483445 14.25416094 -28.87082141 16.51751875 -31 21 C-31.89690942 23.95052273 -32.1351777 26.6087458 -32.125 29.6875 C-32.12757812 30.47511719 -32.13015625 31.26273438 -32.1328125 32.07421875 C-32.21127778 34.00764914 -32.21127778 34.00764914 -31 35 C-24.6911212 34.88931792 -19.76351176 33.21967244 -14 30.875 C-7.84589367 28.38628599 -3.62178799 27.344553 3 29 C0.8614515 26.8614515 -0.13275314 26.57344937 -3 26 C-2.67 24.68 -2.34 23.36 -2 22 C1.3 21.67 4.6 21.34 8 21 C8 21.66 8 22.32 8 23 C7.01 23.495 7.01 23.495 6 24 C5.27306096 25.97888961 4.60183749 27.97954558 4 30 C4.78375 30.268125 5.5675 30.53625 6.375 30.8125 C9 32 9 32 11 35 C12.94931661 41.49772202 11.65275617 48.48315162 8.80859375 54.53515625 C4.5812289 61.43486073 -0.65751904 65.34175608 -8.5 67.3125 C-19.10007715 69.21833579 -28.52062005 67.70368332 -37.640625 61.8125 C-45.6131063 55.68794483 -49.12379098 47.72725035 -51 38 C-52.25681283 25.6746651 -49.56955023 14.89338506 -42 5 C-31.51053149 -5.3157299 -12.60473313 -8.543794 0 0 Z M-24.5625 41.5 C-25.57441406 42.1496875 -26.58632813 42.799375 -27.62890625 43.46875 C-28.41136719 43.9740625 -29.19382812 44.479375 -30 45 C-24.54810024 50.76115439 -24.54810024 50.76115439 -17.125 52.375 C-13.53917241 52.30171301 -12.13191384 52.07537934 -8.9375 50.25 C-6.67162091 47.9593714 -6.67162091 47.9593714 -6 44 C-11.445 43.505 -11.445 43.505 -17 43 C-17.33 41.35 -17.66 39.7 -18 38 C-20.23776295 38 -22.78231778 40.35413558 -24.5625 41.5 Z " fill="#F8B116" transform="translate(57,7)"/>
<path d="M0 0 C0 0.66 0 1.32 0 2 C-0.66 2.33 -1.32 2.66 -2 3 C-2.72693904 4.97888961 -3.39816251 6.97954558 -4 9 C-3.21625 9.268125 -2.4325 9.53625 -1.625 9.8125 C1 11 1 11 3 14 C4.94931661 20.49772202 3.65275617 27.48315162 0.80859375 33.53515625 C-3.4187711 40.43486073 -8.65751904 44.34175608 -16.5 46.3125 C-27.11201201 48.22048161 -36.45924864 46.67270352 -45.62109375 40.8515625 C-49.45368248 37.8685624 -52.72416859 34.31339889 -55 30 C-54.505 28.515 -54.505 28.515 -54 27 C-53.34 27.33 -52.68 27.66 -52 28 C-46.80706708 28.39191947 -44.34573962 27.70140571 -40 25 C-36.96682743 25.09784428 -35.78857565 26.16611913 -33.375 28.0625 C-28.8706396 30.64833653 -25.08869357 31.00925756 -20 30 C-17.17575712 27.80977082 -15.58491397 26.16982793 -14 23 C-14.78246094 23.01160156 -15.56492188 23.02320312 -16.37109375 23.03515625 C-17.38300781 23.04417969 -18.39492188 23.05320312 -19.4375 23.0625 C-20.44683594 23.07410156 -21.45617188 23.08570312 -22.49609375 23.09765625 C-25 23 -25 23 -26 22 C-26.36328125 19.66796875 -26.36328125 19.66796875 -26 17 C-23.91796875 15.05078125 -23.91796875 15.05078125 -21.1875 13.3125 C-20.29417969 12.73113281 -19.40085938 12.14976563 -18.48046875 11.55078125 C-17.66191406 11.03902344 -16.84335937 10.52726562 -16 10 C-15.01 9.34 -14.02 8.68 -13 8 C-10.95703125 7.8046875 -10.95703125 7.8046875 -8.8125 7.875 C-6.9253125 7.936875 -6.9253125 7.936875 -5 8 C-7.1385485 5.8614515 -8.13275314 5.57344937 -11 5 C-10.67 3.68 -10.34 2.36 -10 1 C-6.56484998 0.37542727 -3.50935186 0 0 0 Z " fill="#4E98D0" transform="translate(65,28)"/>
<path d="M0 0 C-0.7425 0.53625 -1.485 1.0725 -2.25 1.625 C-6.25830967 5.08672199 -9.0083878 8.76001005 -10 14 C-10.08917199 15.56050976 -10.1301671 17.12445308 -10.125 18.6875 C-10.12757812 19.47511719 -10.13015625 20.26273438 -10.1328125 21.07421875 C-10.21127778 23.00764914 -10.21127778 23.00764914 -9 24 C-1.84729094 23.87451388 4.04739163 21.66798857 10.59008789 18.99584961 C12.37358156 18.27915057 14.18531027 17.63356797 16 17 C16.66 17.33 17.32 17.66 18 18 C10.91953309 23.06053434 3.70732605 27.84911483 -3.6875 32.4375 C-4.68072266 33.07365234 -5.67394531 33.70980469 -6.69726562 34.36523438 C-15.84725136 40.02545811 -15.84725136 40.02545811 -22 39 C-24.9375 37.625 -24.9375 37.625 -27 35 C-28.47696504 27.90020314 -26.46525608 21.20098457 -23 15 C-17.63286157 7.62336424 -9.85906561 -0.86991755 0 0 Z " fill="#F69E24" transform="translate(35,18)"/>
<path d="M0 0 C0 0.66 0 1.32 0 2 C-0.99 2.495 -0.99 2.495 -2 3 C-2.72159424 4.64363134 -3.39351421 6.31050386 -4 8 C-4.99 7.34 -5.98 6.68 -7 6 C-9.11280345 5.36707617 -9.11280345 5.36707617 -11 5 C-10.67 3.68 -10.34 2.36 -10 1 C-6.56484998 0.37542727 -3.50935186 0 0 0 Z " fill="#F8B116" transform="translate(65,28)"/>
</svg>
